<svg id="Layer_1" data-name="Layer 1" xmlns="http://www.w3.org/2000/svg" viewBox="0 0 750.56 116.3"><defs><style>.cls-1,.cls-2{fill:#fff;}.cls-1{stroke:#000;stroke-miterlimit:10;}</style></defs><path class="cls-1" d="M110.68,3.06V113.24H.5V3.06ZM37.23,88.75V46.67L74,88.75H86.2V27.54H74V71L37.23,27.54H25V88.75Z"/><path class="cls-1" d="M233.1,3.06V113.24H122.92V3.06ZM147.41,88.75h12.24V64.27h49V52h-49V39.78h49V27.54H147.41Z"/><path class="cls-1" d="M355.53,3.06V113.24H245.35V3.06Zm-85.7,36.72h24.49v49h12.24v-49H331V27.54H269.83Z"/><path class="cls-2" d="M456.68,86.91q4.08,8.31,1.25,14.27a12.13,12.13,0,0,1-4.31,5.1,39.5,39.5,0,0,1-7.14,3.53q-7.37,2.66-17.88-6.43c-.21-.21-1.07-1.18-2.59-2.91a12.75,12.75,0,0,0-3.37-3.06q-1.56-.47-4.86.79a16,16,0,0,1-4.39,1.25,45.1,45.1,0,0,1-21.18-4.31q-10.35-4.78-14.74-13.88A48.52,48.52,0,0,1,373.08,64a80.19,80.19,0,0,1,.54-18.5,108.6,108.6,0,0,1,4.16-17.42A38.25,38.25,0,0,1,390,10.2,44.34,44.34,0,0,1,410.09,1,50.51,50.51,0,0,1,427.82.63q15.36,2.52,22,12.71,9.56,14.75,8,38.27c-.21,2.41-.66,5.41-1.33,9s-1.26,6.64-1.73,9.1a31.14,31.14,0,0,0-.32,8.39A25.8,25.8,0,0,0,456.68,86.91Zm-69.49-59a3.14,3.14,0,0,0,.16-.94,2.45,2.45,0,0,0-.16-.87,1.71,1.71,0,0,0-.55-.7,2.58,2.58,0,0,0-.86-.47,2,2,0,0,0-1.8-.08,2.12,2.12,0,0,0-1.18,1.33c-.21.53-.47,1.23-.78,2.12s-.84,2.43-1.57,4.63a65.56,65.56,0,0,0-1.88,6.82q-.79,3.52-1.42,7.61a54.65,54.65,0,0,0-.62,8.15,28.44,28.44,0,0,0,.94,7.53,2.09,2.09,0,0,0,2.19,1.73h.63a2.31,2.31,0,0,0,1.1-.63,2.39,2.39,0,0,0,.63-1.1,2.64,2.64,0,0,0,0-1.25,21.23,21.23,0,0,1-.71-8.31q.39-5,1.1-9a75.4,75.4,0,0,1,2-8.15c.84-2.83,1.46-4.84,1.88-6A25.05,25.05,0,0,1,387.19,27.93Zm20.71,24.7a8.74,8.74,0,0,0,4.47,1.18,9.16,9.16,0,0,0,4.55-1.18,8.27,8.27,0,0,0,3.29-3.29,9,9,0,0,0,1.18-4.47,8.88,8.88,0,0,0-2.59-6.43,8.5,8.5,0,0,0-6.35-2.67,9,9,0,0,0-7.85,13.57A9.05,9.05,0,0,0,407.9,52.63Zm42.51,53.25q7.68-6.59,5.64-16.78a1.72,1.72,0,0,0-2.51-1.41A2.05,2.05,0,0,0,452,90.2q1.72,7.53-4.54,12.86a1.56,1.56,0,0,0-.55,1.88,2.11,2.11,0,0,0,1.41,1.42A2.34,2.34,0,0,0,450.41,105.88Z"/><path class="cls-2" d="M522.09,76.87q.46,14.43-1.73,24.31-1.87,7.84-7.37,9.25a5.42,5.42,0,0,1-1.26.24,16.4,16.4,0,0,1-2.66-.08,9.55,9.55,0,0,1-3.37-.86,8.32,8.32,0,0,1-3-2.75,12.7,12.7,0,0,1-2.12-5.17c.21.83-1,2.72-3.61,5.64q-5.64,6.12-12.86,5.81-10.2-.48-14.28-7.06a42.87,42.87,0,0,1-5.41-15,142.43,142.43,0,0,1-1.64-19.06q-.17-9.72.62-20.23c0-.11,0-.53.08-1.26s.08-1.17.08-1.33,0-.58.08-1.26a8.45,8.45,0,0,1,.16-1.33c.05-.21.13-.6.23-1.18a10.34,10.34,0,0,1,.31-1.33c.11-.31.24-.71.4-1.18a4.25,4.25,0,0,1,.55-1.17c.2-.32.41-.65.62-1a4.51,4.51,0,0,1,.79-1,13.13,13.13,0,0,1,6.19-3.69,10.22,10.22,0,0,1,7.14.55,8.12,8.12,0,0,1,3.84,4.71,15.83,15.83,0,0,1,.94,6.58c-.15,2.2-.29,4.35-.39,6.44,0,.41,0,1,.08,1.72a34.55,34.55,0,0,0,.63,3.84,35.77,35.77,0,0,0,1.25,4.79,9,9,0,0,0,2.36,3.61,4.67,4.67,0,0,0,3.68,1.41,7.92,7.92,0,0,0,4-1.26,6.35,6.35,0,0,0,2.43-3.21,24.3,24.3,0,0,0,1.1-3.77,46.36,46.36,0,0,0,.55-4.86,36.56,36.56,0,0,1,.55-4.63,12.65,12.65,0,0,1,3-7A8.8,8.8,0,0,1,510.64,42a8.18,8.18,0,0,1,6.82,2.83,14.14,14.14,0,0,1,3.22,7.53c.31,1.88.54,4,.7,6.19s.26,4.19.32,5.81.13,3.79.23,6.51S522.09,75.61,522.09,76.87ZM473.62,41.42a1.69,1.69,0,0,0,.63-1.89,1.77,1.77,0,0,0-1.42-1.33,2.56,2.56,0,0,0-2,.39q-5.81,5-5.18,15.06a1.72,1.72,0,0,0,1.1,1.73,2.35,2.35,0,0,0,2,0,1.77,1.77,0,0,0,.94-1.73Q469.22,45.51,473.62,41.42Zm-7.84,19.29c0,1.36.65,2,2,2s2-.68,2-2-.66-2-2-2S465.78,59.35,465.78,60.71ZM512.21,109q7.68-3,6.27-13.49A2,2,0,0,0,516,93.65a1.75,1.75,0,0,0-1.57,1.88q1.1,7.84-3.29,9.57a2.14,2.14,0,0,0-1.34,1.65,2.06,2.06,0,0,0,.55,2A1.59,1.59,0,0,0,512.21,109Z"/><path class="cls-2" d="M548.75,47.69q2,10.35,1.41,33.41c0,.32,0,1.33-.07,3.06S550,87,550,87.45s-.06,1.49-.16,3.06-.18,2.7-.23,3.37-.16,1.73-.32,3.14a30.28,30.28,0,0,1-.55,3.45c-.21.89-.44,1.91-.7,3.06s-.55,2.2-.87,3.14-.68,1.88-1.09,2.82q-2.21,4.71-5.89,5.88a7.21,7.21,0,0,1-6.9-1.25,14.27,14.27,0,0,1-4.78-7.14,59.7,59.7,0,0,1-2.2-17.56,145.84,145.84,0,0,1,.94-17.89q1.26-14.89,2.2-21.8a20.89,20.89,0,0,1,2.35-7.29,10,10,0,0,1,4.86-4.79,8.74,8.74,0,0,1,1.73-.47,10.12,10.12,0,0,1,5.49.94,7.45,7.45,0,0,1,3.76,3.61,4.82,4.82,0,0,1,.63,1.8c.1.69.18,1.44.24,2.28A11.59,11.59,0,0,0,548.75,47.69Zm-18.82,10.2a2.17,2.17,0,0,0,1.25,1.8,2,2,0,0,0,2,0,1.65,1.65,0,0,0,.79-1.8q-.94-9.26,3.61-14.9a1.86,1.86,0,0,0,.31-2,2.38,2.38,0,0,0-1.41-1.42,1.79,1.79,0,0,0-1.88.63Q528.84,47.38,529.93,57.89Zm-.16,6.43a2,2,0,1,0,2-2A1.8,1.8,0,0,0,529.77,64.32ZM547.58,25a9.1,9.1,0,0,1-13,0,9,9,0,0,1-2.75-6.59,8.74,8.74,0,0,1,2.75-6.51,9.27,9.27,0,0,1,13,0,8.77,8.77,0,0,1,2.74,6.51A9,9,0,0,1,547.58,25Zm-14.2-4.79a.85.85,0,0,0,.55.86,1.14,1.14,0,0,0,1,0,.87.87,0,0,0,.47-.86,8.35,8.35,0,0,1,3.92-7.53,1,1,0,0,0,.32-1.41c-.32-.73-.79-.89-1.42-.47a11.9,11.9,0,0,0-3.6,4.08A11.71,11.71,0,0,0,533.38,20.24Zm13.33,84.23c.21-1.35-.42-2.19-1.88-2.51-1.15-.21-1.83.32-2,1.57a10,10,0,0,1-4.23,6.9,1.8,1.8,0,0,0-1,1.81,2,2,0,0,0,1,1.72,1.91,1.91,0,0,0,2-.08A13,13,0,0,0,546.71,104.47Z"/><path class="cls-2" d="M615.1,88.47h1.1c2,0,3.55,0,4.7.08a43,43,0,0,1,4.55.55,10.29,10.29,0,0,1,4.24,1.49,9,9,0,0,1,2.51,3.06,8.54,8.54,0,0,1,.78,5q-.63,6.75-6,9.65a22.13,22.13,0,0,1-12.62,2.27l-43,.16h-1.26c-.52,0-1.49,0-2.9-.16a15.05,15.05,0,0,1-3.76-.71,10.3,10.3,0,0,1-3.22-1.8,5.66,5.66,0,0,1-2-3.06,8.66,8.66,0,0,1,.63-4.86,27.09,27.09,0,0,1,4.08-7q1.88-2.5,6.27-7.22t6.28-7.21L578,75.53q2-2.43,3.22-4.07T584,67.38a17.54,17.54,0,0,0,2.2-4.63,9.2,9.2,0,0,0,.31-4.08q-.78-5.18-12.08-3c-.41.11-1.38.31-2.9.63s-2.58.52-3.21.63a13.45,13.45,0,0,1-2.67.07,18.2,18.2,0,0,1-3.14-.39q-5.81-1.87-8.15-5.33a9.1,9.1,0,0,1-.79-8.78,11.52,11.52,0,0,1,6.28-6.44,20.05,20.05,0,0,1,5.64-1.56q4.25-.63,7.3-.87c2-.15,4.6-.21,7.68-.15s5.52.07,7.3.07a121.06,121.06,0,0,1,16.47.63,21.68,21.68,0,0,1,12.94,6.59q4.93,5.34,2,12.55-.79,1.88-11.92,16.62-13.5,17.73-9.73,19a1.57,1.57,0,0,0,1.26.16Q608.36,88.47,615.1,88.47ZM565.53,39.53q2-1.1.47-3a1.84,1.84,0,0,0-2.5-.47Q556,39.85,555.81,48a1.9,1.9,0,0,0,1,1.81,2,2,0,0,0,2,0,1.9,1.9,0,0,0,1-1.81Q560,42.36,565.53,39.53ZM630.94,102a2,2,0,0,0,.39-2A1.89,1.89,0,0,0,630,98.59a2.07,2.07,0,0,0-1.88.55,13.71,13.71,0,0,1-10.35,5,1.89,1.89,0,0,0-1.81,1.1,2.22,2.22,0,0,0,0,2.12,1.65,1.65,0,0,0,1.81.86A17,17,0,0,0,630.94,102Z"/><path class="cls-2" d="M678.47,85.49a14.24,14.24,0,0,1,6.51-.55,5.66,5.66,0,0,1,3.53,2.12,8.39,8.39,0,0,1,1.41,3.3,10.12,10.12,0,0,1,.16,3l-.16,1.41a37.7,37.7,0,0,1-6,10,23.64,23.64,0,0,1-7.14,5.88,30.38,30.38,0,0,1-7.45,2.59,21,21,0,0,1-7.13.31q-3.3-.46-6-1a25,25,0,0,1-4.23-1.18l-1.41-.78a21.42,21.42,0,0,1-8.08-6.12,28.47,28.47,0,0,1-5-8.78,71.12,71.12,0,0,1-2.67-10,52.7,52.7,0,0,1-1-10c0-3.19.06-6.06.16-8.63s.26-4.62.47-6.19l.47-2.36Q639.41,40,655.1,37.18a20.79,20.79,0,0,1,20.62,8.71,18.9,18.9,0,0,1,3.61,11.92,14,14,0,0,1-5.41,10.74,34.17,34.17,0,0,1-4.86,2.51q-4.08,1.89-5.18,4.39a7.67,7.67,0,0,0-.08,5.18,7.36,7.36,0,0,0,3.06,4.08Q670.94,87.7,678.47,85.49ZM636.59,63.06c0,1.36.65,2,2,2s2-.68,2-2a1.78,1.78,0,0,0-2-2C637.24,61,636.59,61.71,636.59,63.06Zm6-6q2-7.68,10.35-11.29a1.88,1.88,0,0,0,1.1-1.65,2,2,0,0,0-1-1.72,2.09,2.09,0,0,0-2.12-.24Q641.14,46.6,638.63,56a1.92,1.92,0,0,0,.55,2,2.08,2.08,0,0,0,2,.55A1.8,1.8,0,0,0,642.55,57.1Zm8.62-1.57a7.51,7.51,0,0,0,7.46,7.38,6.88,6.88,0,0,0,5.17-2.2,7.31,7.31,0,0,0,2.12-5.25,7.05,7.05,0,0,0-2.12-5.18,7.13,7.13,0,0,0-5.25-2.12,7.39,7.39,0,0,0-3.69.94,7.45,7.45,0,0,0-3.69,6.43ZM686.31,96a1.94,1.94,0,0,0-.55-2,2.14,2.14,0,0,0-2-.55,1.83,1.83,0,0,0-1.41,1.49q-1.73,6.6-8.47,10.2a1.88,1.88,0,0,0-1.1,1.65,2,2,0,0,0,1,1.72,1.85,1.85,0,0,0,2.12.08Q684.27,104.32,686.31,96Z"/><path class="cls-2" d="M750,49a17.15,17.15,0,0,1,.08,8.54q-1,5.26-4.16,7.14t-9.8,2.28a61.88,61.88,0,0,0-8.55.86,9.22,9.22,0,0,0-6,3.84,8.8,8.8,0,0,0-1.72,5.26l.15,2.35a25.41,25.41,0,0,1,.24,2.82c.05,1.26.08,2.15.08,2.67.1.73.28,2.2.55,4.39s.47,4.21.62,6,.29,4,.4,6.43a22.88,22.88,0,0,1-.48,6.27,21.48,21.48,0,0,1-1.8,4.87,6.27,6.27,0,0,1-3.53,3.13,10.14,10.14,0,0,1-5.8.08q-7.06-1.73-11.77-12.86-5.17-12.39-6.27-33.1,0-.3-.63-16.31-.32-11.61,6.12-15.21a8.85,8.85,0,0,1,4.24-1.1q5.47,0,8.94,5.33a53.11,53.11,0,0,1,2.35,5.18q1.25,3.13.47,4.39,5-8.77,19.29-10.51Q748.11,40,750,49ZM700.9,43.61a2.08,2.08,0,0,0,.39-2.11,1.93,1.93,0,0,0-1.41-1.42,2.21,2.21,0,0,0-2,.55q-5.5,6.28-4.4,15.53A2.23,2.23,0,0,0,694.78,58a2.06,2.06,0,0,0,2,0,1.65,1.65,0,0,0,.78-1.81C697,50.93,698.07,46.75,700.9,43.61ZM694,61.89c0,1.41.65,2.11,2,2.11s2-.7,2-2.11-.66-2.12-2-2.12S694,60.48,694,61.89Zm25.72,41.49a2.19,2.19,0,0,0-.16-1.89.82.82,0,0,0-1.17-.23,2.33,2.33,0,0,0-1,1.49q-.95,4.55-3.77,6c-1,.52-1.36,1.51-.94,3q.32,1.26,1.41.78Q718.46,110.28,719.72,103.38Z"/></svg>